<svg xmlns="http://www.w3.org/2000/svg" viewBox="0 0 176 192" shape-rendering="crispEdges">
<rect x="64" y="0" width="48" height="8" fill="#4caf50"/>
<rect x="48" y="8" width="80" height="8" fill="#4caf50"/>
<rect x="48" y="16" width="16" height="8" fill="#4caf50"/>
<rect x="64" y="16" width="48" height="8" fill="#141416"/>
<rect x="112" y="16" width="16" height="8" fill="#4caf50"/>
<rect x="32" y="24" width="16" height="8" fill="#4caf50"/>
<rect x="48" y="24" width="16" height="8" fill="#141416"/>
<rect x="64" y="24" width="48" height="8" fill="#fcfaf6"/>
<rect x="112" y="24" width="16" height="8" fill="#141416"/>
<rect x="128" y="24" width="16" height="8" fill="#4caf50"/>
<rect x="24" y="32" width="16" height="8" fill="#4caf50"/>
<rect x="40" y="32" width="8" height="8" fill="#141416"/>
<rect x="48" y="32" width="80" height="8" fill="#fcfaf6"/>
<rect x="128" y="32" width="8" height="8" fill="#141416"/>
<rect x="136" y="32" width="16" height="8" fill="#4caf50"/>
<rect x="16" y="40" width="16" height="8" fill="#4caf50"/>
<rect x="32" y="40" width="8" height="8" fill="#141416"/>
<rect x="40" y="40" width="96" height="8" fill="#fcfaf6"/>
<rect x="136" y="40" width="8" height="8" fill="#141416"/>
<rect x="144" y="40" width="16" height="8" fill="#4caf50"/>
<rect x="8" y="48" width="16" height="8" fill="#4caf50"/>
<rect x="24" y="48" width="8" height="8" fill="#141416"/>
<rect x="32" y="48" width="112" height="8" fill="#fcfaf6"/>
<rect x="144" y="48" width="8" height="8" fill="#141416"/>
<rect x="152" y="48" width="16" height="8" fill="#4caf50"/>
<rect x="8" y="56" width="16" height="8" fill="#4caf50"/>
<rect x="24" y="56" width="8" height="8" fill="#141416"/>
<rect x="32" y="56" width="8" height="8" fill="#c7d9ee"/>
<rect x="40" y="56" width="104" height="8" fill="#fcfaf6"/>
<rect x="144" y="56" width="8" height="8" fill="#141416"/>
<rect x="152" y="56" width="16" height="8" fill="#4caf50"/>
<rect x="0" y="64" width="16" height="8" fill="#4caf50"/>
<rect x="16" y="64" width="8" height="8" fill="#141416"/>
<rect x="24" y="64" width="8" height="8" fill="#c7d9ee"/>
<rect x="32" y="64" width="120" height="8" fill="#fcfaf6"/>
<rect x="152" y="64" width="8" height="8" fill="#141416"/>
<rect x="160" y="64" width="16" height="8" fill="#4caf50"/>
<rect x="0" y="72" width="24" height="8" fill="#141416"/>
<rect x="24" y="72" width="8" height="8" fill="#c7d9ee"/>
<rect x="32" y="72" width="120" height="8" fill="#fcfaf6"/>
<rect x="152" y="72" width="24" height="8" fill="#141416"/>
<rect x="0" y="80" width="8" height="8" fill="#141416"/>
<rect x="8" y="80" width="16" height="8" fill="#4caf50"/>
<rect x="24" y="80" width="8" height="8" fill="#c7d9ee"/>
<rect x="32" y="80" width="120" height="8" fill="#fcfaf6"/>
<rect x="152" y="80" width="16" height="8" fill="#4caf50"/>
<rect x="168" y="80" width="8" height="8" fill="#141416"/>
<rect x="0" y="88" width="8" height="8" fill="#141416"/>
<rect x="8" y="88" width="16" height="8" fill="#4caf50"/>
<rect x="24" y="88" width="8" height="8" fill="#c7d9ee"/>
<rect x="32" y="88" width="24" height="8" fill="#fcfaf6"/>
<rect x="56" y="88" width="16" height="8" fill="#141416"/>
<rect x="72" y="88" width="32" height="8" fill="#fcfaf6"/>
<rect x="104" y="88" width="16" height="8" fill="#141416"/>
<rect x="120" y="88" width="32" height="8" fill="#fcfaf6"/>
<rect x="152" y="88" width="16" height="8" fill="#4caf50"/>
<rect x="168" y="88" width="8" height="8" fill="#141416"/>
<rect x="0" y="96" width="8" height="8" fill="#141416"/>
<rect x="8" y="96" width="16" height="8" fill="#4caf50"/>
<rect x="24" y="96" width="8" height="8" fill="#c7d9ee"/>
<rect x="32" y="96" width="24" height="8" fill="#fcfaf6"/>
<rect x="56" y="96" width="16" height="8" fill="#141416"/>
<rect x="72" y="96" width="32" height="8" fill="#fcfaf6"/>
<rect x="104" y="96" width="16" height="8" fill="#141416"/>
<rect x="120" y="96" width="32" height="8" fill="#fcfaf6"/>
<rect x="152" y="96" width="16" height="8" fill="#4caf50"/>
<rect x="168" y="96" width="8" height="8" fill="#141416"/>
<rect x="0" y="104" width="8" height="8" fill="#141416"/>
<rect x="8" y="104" width="16" height="8" fill="#4caf50"/>
<rect x="24" y="104" width="8" height="8" fill="#c7d9ee"/>
<rect x="32" y="104" width="120" height="8" fill="#fcfaf6"/>
<rect x="152" y="104" width="16" height="8" fill="#4caf50"/>
<rect x="168" y="104" width="8" height="8" fill="#141416"/>
<rect x="0" y="112" width="24" height="8" fill="#141416"/>
<rect x="24" y="112" width="8" height="8" fill="#c7d9ee"/>
<rect x="32" y="112" width="120" height="8" fill="#fcfaf6"/>
<rect x="152" y="112" width="24" height="8" fill="#141416"/>
<rect x="16" y="120" width="8" height="8" fill="#141416"/>
<rect x="24" y="120" width="8" height="8" fill="#c7d9ee"/>
<rect x="32" y="120" width="48" height="8" fill="#fcfaf6"/>
<rect x="80" y="120" width="16" height="8" fill="#141416"/>
<rect x="96" y="120" width="56" height="8" fill="#fcfaf6"/>
<rect x="152" y="120" width="8" height="8" fill="#141416"/>
<rect x="16" y="128" width="8" height="8" fill="#141416"/>
<rect x="24" y="128" width="8" height="8" fill="#c7d9ee"/>
<rect x="32" y="128" width="120" height="8" fill="#fcfaf6"/>
<rect x="152" y="128" width="8" height="8" fill="#141416"/>
<rect x="16" y="136" width="8" height="8" fill="#141416"/>
<rect x="24" y="136" width="8" height="8" fill="#c7d9ee"/>
<rect x="32" y="136" width="120" height="8" fill="#fcfaf6"/>
<rect x="152" y="136" width="8" height="8" fill="#141416"/>
<rect x="16" y="144" width="8" height="8" fill="#141416"/>
<rect x="24" y="144" width="128" height="8" fill="#fcfaf6"/>
<rect x="152" y="144" width="8" height="8" fill="#141416"/>
<rect x="16" y="152" width="8" height="8" fill="#141416"/>
<rect x="24" y="152" width="128" height="8" fill="#fcfaf6"/>
<rect x="152" y="152" width="8" height="8" fill="#141416"/>
<rect x="16" y="160" width="8" height="8" fill="#141416"/>
<rect x="24" y="160" width="128" height="8" fill="#fcfaf6"/>
<rect x="152" y="160" width="8" height="8" fill="#141416"/>
<rect x="16" y="168" width="8" height="8" fill="#141416"/>
<rect x="24" y="168" width="32" height="8" fill="#fcfaf6"/>
<rect x="56" y="168" width="8" height="8" fill="#141416"/>
<rect x="64" y="168" width="24" height="8" fill="#fcfaf6"/>
<rect x="88" y="168" width="8" height="8" fill="#141416"/>
<rect x="96" y="168" width="24" height="8" fill="#fcfaf6"/>
<rect x="120" y="168" width="8" height="8" fill="#141416"/>
<rect x="128" y="168" width="24" height="8" fill="#fcfaf6"/>
<rect x="152" y="168" width="8" height="8" fill="#141416"/>
<rect x="16" y="176" width="8" height="8" fill="#141416"/>
<rect x="24" y="176" width="24" height="8" fill="#fcfaf6"/>
<rect x="48" y="176" width="8" height="8" fill="#141416"/>
<rect x="64" y="176" width="8" height="8" fill="#141416"/>
<rect x="72" y="176" width="8" height="8" fill="#fcfaf6"/>
<rect x="80" y="176" width="8" height="8" fill="#141416"/>
<rect x="96" y="176" width="8" height="8" fill="#141416"/>
<rect x="104" y="176" width="8" height="8" fill="#fcfaf6"/>
<rect x="112" y="176" width="8" height="8" fill="#141416"/>
<rect x="128" y="176" width="8" height="8" fill="#141416"/>
<rect x="136" y="176" width="16" height="8" fill="#fcfaf6"/>
<rect x="152" y="176" width="8" height="8" fill="#141416"/>
<rect x="24" y="184" width="24" height="8" fill="#141416"/>
<rect x="72" y="184" width="8" height="8" fill="#141416"/>
<rect x="104" y="184" width="8" height="8" fill="#141416"/>
<rect x="136" y="184" width="16" height="8" fill="#141416"/>
</svg>