<svg xmlns="http://www.w3.org/2000/svg" viewBox="0 0 144 216" shape-rendering="crispEdges">
<rect x="40" y="0" width="64" height="8" fill="#141416"/>
<rect x="40" y="8" width="8" height="8" fill="#141416"/>
<rect x="48" y="8" width="48" height="8" fill="#58a8e8"/>
<rect x="96" y="8" width="8" height="8" fill="#141416"/>
<rect x="40" y="16" width="8" height="8" fill="#141416"/>
<rect x="48" y="16" width="48" height="8" fill="#58a8e8"/>
<rect x="96" y="16" width="8" height="8" fill="#141416"/>
<rect x="40" y="24" width="8" height="8" fill="#141416"/>
<rect x="48" y="24" width="48" height="8" fill="#58a8e8"/>
<rect x="96" y="24" width="8" height="8" fill="#141416"/>
<rect x="16" y="32" width="32" height="8" fill="#141416"/>
<rect x="48" y="32" width="48" height="8" fill="#58a8e8"/>
<rect x="96" y="32" width="32" height="8" fill="#141416"/>
<rect x="16" y="40" width="112" height="8" fill="#141416"/>
<rect x="32" y="48" width="16" height="8" fill="#141416"/>
<rect x="48" y="48" width="48" height="8" fill="#fcfaf6"/>
<rect x="96" y="48" width="16" height="8" fill="#141416"/>
<rect x="24" y="56" width="8" height="8" fill="#141416"/>
<rect x="32" y="56" width="80" height="8" fill="#fcfaf6"/>
<rect x="112" y="56" width="8" height="8" fill="#141416"/>
<rect x="16" y="64" width="8" height="8" fill="#141416"/>
<rect x="24" y="64" width="96" height="8" fill="#fcfaf6"/>
<rect x="120" y="64" width="8" height="8" fill="#141416"/>
<rect x="8" y="72" width="8" height="8" fill="#141416"/>
<rect x="16" y="72" width="112" height="8" fill="#fcfaf6"/>
<rect x="128" y="72" width="8" height="8" fill="#141416"/>
<rect x="8" y="80" width="8" height="8" fill="#141416"/>
<rect x="16" y="80" width="8" height="8" fill="#c7d9ee"/>
<rect x="24" y="80" width="104" height="8" fill="#fcfaf6"/>
<rect x="128" y="80" width="8" height="8" fill="#141416"/>
<rect x="0" y="88" width="8" height="8" fill="#141416"/>
<rect x="8" y="88" width="8" height="8" fill="#c7d9ee"/>
<rect x="16" y="88" width="120" height="8" fill="#fcfaf6"/>
<rect x="136" y="88" width="8" height="8" fill="#141416"/>
<rect x="0" y="96" width="8" height="8" fill="#141416"/>
<rect x="8" y="96" width="8" height="8" fill="#c7d9ee"/>
<rect x="16" y="96" width="120" height="8" fill="#fcfaf6"/>
<rect x="136" y="96" width="8" height="8" fill="#141416"/>
<rect x="0" y="104" width="8" height="8" fill="#141416"/>
<rect x="8" y="104" width="8" height="8" fill="#c7d9ee"/>
<rect x="16" y="104" width="120" height="8" fill="#fcfaf6"/>
<rect x="136" y="104" width="8" height="8" fill="#141416"/>
<rect x="0" y="112" width="8" height="8" fill="#141416"/>
<rect x="8" y="112" width="8" height="8" fill="#c7d9ee"/>
<rect x="16" y="112" width="24" height="8" fill="#fcfaf6"/>
<rect x="40" y="112" width="16" height="8" fill="#141416"/>
<rect x="56" y="112" width="32" height="8" fill="#fcfaf6"/>
<rect x="88" y="112" width="16" height="8" fill="#141416"/>
<rect x="104" y="112" width="32" height="8" fill="#fcfaf6"/>
<rect x="136" y="112" width="8" height="8" fill="#141416"/>
<rect x="0" y="120" width="8" height="8" fill="#141416"/>
<rect x="8" y="120" width="8" height="8" fill="#c7d9ee"/>
<rect x="16" y="120" width="24" height="8" fill="#fcfaf6"/>
<rect x="40" y="120" width="16" height="8" fill="#141416"/>
<rect x="56" y="120" width="32" height="8" fill="#fcfaf6"/>
<rect x="88" y="120" width="16" height="8" fill="#141416"/>
<rect x="104" y="120" width="32" height="8" fill="#fcfaf6"/>
<rect x="136" y="120" width="8" height="8" fill="#141416"/>
<rect x="0" y="128" width="8" height="8" fill="#141416"/>
<rect x="8" y="128" width="8" height="8" fill="#c7d9ee"/>
<rect x="16" y="128" width="120" height="8" fill="#fcfaf6"/>
<rect x="136" y="128" width="8" height="8" fill="#141416"/>
<rect x="0" y="136" width="8" height="8" fill="#141416"/>
<rect x="8" y="136" width="8" height="8" fill="#c7d9ee"/>
<rect x="16" y="136" width="120" height="8" fill="#fcfaf6"/>
<rect x="136" y="136" width="8" height="8" fill="#141416"/>
<rect x="0" y="144" width="8" height="8" fill="#141416"/>
<rect x="8" y="144" width="8" height="8" fill="#c7d9ee"/>
<rect x="16" y="144" width="48" height="8" fill="#fcfaf6"/>
<rect x="64" y="144" width="16" height="8" fill="#141416"/>
<rect x="80" y="144" width="56" height="8" fill="#fcfaf6"/>
<rect x="136" y="144" width="8" height="8" fill="#141416"/>
<rect x="0" y="152" width="8" height="8" fill="#141416"/>
<rect x="8" y="152" width="8" height="8" fill="#c7d9ee"/>
<rect x="16" y="152" width="120" height="8" fill="#fcfaf6"/>
<rect x="136" y="152" width="8" height="8" fill="#141416"/>
<rect x="0" y="160" width="8" height="8" fill="#141416"/>
<rect x="8" y="160" width="8" height="8" fill="#c7d9ee"/>
<rect x="16" y="160" width="120" height="8" fill="#fcfaf6"/>
<rect x="136" y="160" width="8" height="8" fill="#141416"/>
<rect x="0" y="168" width="8" height="8" fill="#141416"/>
<rect x="8" y="168" width="128" height="8" fill="#fcfaf6"/>
<rect x="136" y="168" width="8" height="8" fill="#141416"/>
<rect x="0" y="176" width="8" height="8" fill="#141416"/>
<rect x="8" y="176" width="128" height="8" fill="#fcfaf6"/>
<rect x="136" y="176" width="8" height="8" fill="#141416"/>
<rect x="0" y="184" width="8" height="8" fill="#141416"/>
<rect x="8" y="184" width="128" height="8" fill="#fcfaf6"/>
<rect x="136" y="184" width="8" height="8" fill="#141416"/>
<rect x="0" y="192" width="8" height="8" fill="#141416"/>
<rect x="8" y="192" width="32" height="8" fill="#fcfaf6"/>
<rect x="40" y="192" width="8" height="8" fill="#141416"/>
<rect x="48" y="192" width="24" height="8" fill="#fcfaf6"/>
<rect x="72" y="192" width="8" height="8" fill="#141416"/>
<rect x="80" y="192" width="24" height="8" fill="#fcfaf6"/>
<rect x="104" y="192" width="8" height="8" fill="#141416"/>
<rect x="112" y="192" width="24" height="8" fill="#fcfaf6"/>
<rect x="136" y="192" width="8" height="8" fill="#141416"/>
<rect x="0" y="200" width="8" height="8" fill="#141416"/>
<rect x="8" y="200" width="24" height="8" fill="#fcfaf6"/>
<rect x="32" y="200" width="8" height="8" fill="#141416"/>
<rect x="48" y="200" width="8" height="8" fill="#141416"/>
<rect x="56" y="200" width="8" height="8" fill="#fcfaf6"/>
<rect x="64" y="200" width="8" height="8" fill="#141416"/>
<rect x="80" y="200" width="8" height="8" fill="#141416"/>
<rect x="88" y="200" width="8" height="8" fill="#fcfaf6"/>
<rect x="96" y="200" width="8" height="8" fill="#141416"/>
<rect x="112" y="200" width="8" height="8" fill="#141416"/>
<rect x="120" y="200" width="16" height="8" fill="#fcfaf6"/>
<rect x="136" y="200" width="8" height="8" fill="#141416"/>
<rect x="8" y="208" width="24" height="8" fill="#141416"/>
<rect x="56" y="208" width="8" height="8" fill="#141416"/>
<rect x="88" y="208" width="8" height="8" fill="#141416"/>
<rect x="120" y="208" width="16" height="8" fill="#141416"/>
</svg>