<svg xmlns="http://www.w3.org/2000/svg" viewBox="0 0 240 272" shape-rendering="crispEdges">
<rect x="88" y="0" width="64" height="8" fill="#141416"/>
<rect x="72" y="8" width="16" height="8" fill="#141416"/>
<rect x="88" y="8" width="80" height="8" fill="#f28c30"/>
<rect x="168" y="8" width="16" height="8" fill="#141416"/>
<rect x="64" y="16" width="8" height="8" fill="#141416"/>
<rect x="72" y="16" width="112" height="8" fill="#f28c30"/>
<rect x="184" y="16" width="8" height="8" fill="#141416"/>
<rect x="56" y="24" width="8" height="8" fill="#141416"/>
<rect x="64" y="24" width="8" height="8" fill="#ffb25c"/>
<rect x="72" y="24" width="128" height="8" fill="#f28c30"/>
<rect x="200" y="24" width="8" height="8" fill="#141416"/>
<rect x="48" y="32" width="8" height="8" fill="#141416"/>
<rect x="56" y="32" width="16" height="8" fill="#ffb25c"/>
<rect x="72" y="32" width="128" height="8" fill="#f28c30"/>
<rect x="200" y="32" width="8" height="8" fill="#141416"/>
<rect x="48" y="40" width="8" height="8" fill="#141416"/>
<rect x="56" y="40" width="8" height="8" fill="#ffb25c"/>
<rect x="64" y="40" width="136" height="8" fill="#f28c30"/>
<rect x="200" y="40" width="8" height="8" fill="#141416"/>
<rect x="40" y="48" width="8" height="8" fill="#141416"/>
<rect x="48" y="48" width="8" height="8" fill="#ffb25c"/>
<rect x="56" y="48" width="144" height="8" fill="#f28c30"/>
<rect x="200" y="48" width="8" height="8" fill="#141416"/>
<rect x="40" y="56" width="8" height="8" fill="#141416"/>
<rect x="48" y="56" width="160" height="8" fill="#f28c30"/>
<rect x="208" y="56" width="8" height="8" fill="#141416"/>
<rect x="40" y="64" width="8" height="8" fill="#141416"/>
<rect x="48" y="64" width="160" height="8" fill="#e07a1e"/>
<rect x="208" y="64" width="8" height="8" fill="#141416"/>
<rect x="32" y="72" width="8" height="8" fill="#141416"/>
<rect x="40" y="72" width="176" height="8" fill="#c66018"/>
<rect x="216" y="72" width="8" height="8" fill="#141416"/>
<rect x="32" y="80" width="8" height="8" fill="#141416"/>
<rect x="40" y="80" width="176" height="8" fill="#c66018"/>
<rect x="216" y="80" width="8" height="8" fill="#141416"/>
<rect x="24" y="88" width="8" height="8" fill="#141416"/>
<rect x="32" y="88" width="192" height="8" fill="#c66018"/>
<rect x="224" y="88" width="8" height="8" fill="#141416"/>
<rect x="24" y="96" width="8" height="8" fill="#141416"/>
<rect x="32" y="96" width="8" height="8" fill="#c7d9ee"/>
<rect x="40" y="96" width="176" height="8" fill="#fcfaf6"/>
<rect x="216" y="96" width="8" height="8" fill="#141416"/>
<rect x="16" y="104" width="8" height="8" fill="#141416"/>
<rect x="24" y="104" width="8" height="8" fill="#c7d9ee"/>
<rect x="32" y="104" width="192" height="8" fill="#fcfaf6"/>
<rect x="224" y="104" width="8" height="8" fill="#141416"/>
<rect x="16" y="112" width="8" height="8" fill="#141416"/>
<rect x="24" y="112" width="8" height="8" fill="#c7d9ee"/>
<rect x="32" y="112" width="192" height="8" fill="#fcfaf6"/>
<rect x="224" y="112" width="8" height="8" fill="#141416"/>
<rect x="16" y="120" width="8" height="8" fill="#141416"/>
<rect x="24" y="120" width="8" height="8" fill="#c7d9ee"/>
<rect x="32" y="120" width="192" height="8" fill="#fcfaf6"/>
<rect x="224" y="120" width="8" height="8" fill="#141416"/>
<rect x="16" y="128" width="8" height="8" fill="#141416"/>
<rect x="24" y="128" width="8" height="8" fill="#c7d9ee"/>
<rect x="32" y="128" width="40" height="8" fill="#fcfaf6"/>
<rect x="72" y="128" width="32" height="8" fill="#141416"/>
<rect x="104" y="128" width="48" height="8" fill="#fcfaf6"/>
<rect x="152" y="128" width="32" height="8" fill="#141416"/>
<rect x="184" y="128" width="40" height="8" fill="#fcfaf6"/>
<rect x="224" y="128" width="8" height="8" fill="#141416"/>
<rect x="16" y="136" width="8" height="8" fill="#141416"/>
<rect x="24" y="136" width="8" height="8" fill="#c7d9ee"/>
<rect x="32" y="136" width="32" height="8" fill="#fcfaf6"/>
<rect x="64" y="136" width="8" height="8" fill="#141416"/>
<rect x="72" y="136" width="32" height="8" fill="#28242e"/>
<rect x="104" y="136" width="8" height="8" fill="#141416"/>
<rect x="112" y="136" width="32" height="8" fill="#fcfaf6"/>
<rect x="144" y="136" width="8" height="8" fill="#141416"/>
<rect x="152" y="136" width="32" height="8" fill="#28242e"/>
<rect x="184" y="136" width="8" height="8" fill="#141416"/>
<rect x="192" y="136" width="32" height="8" fill="#fcfaf6"/>
<rect x="224" y="136" width="8" height="8" fill="#141416"/>
<rect x="16" y="144" width="8" height="8" fill="#141416"/>
<rect x="24" y="144" width="8" height="8" fill="#c7d9ee"/>
<rect x="32" y="144" width="32" height="8" fill="#fcfaf6"/>
<rect x="64" y="144" width="8" height="8" fill="#141416"/>
<rect x="72" y="144" width="8" height="8" fill="#28242e"/>
<rect x="80" y="144" width="16" height="8" fill="#fcfaf6"/>
<rect x="96" y="144" width="8" height="8" fill="#28242e"/>
<rect x="104" y="144" width="8" height="8" fill="#141416"/>
<rect x="112" y="144" width="32" height="8" fill="#fcfaf6"/>
<rect x="144" y="144" width="8" height="8" fill="#141416"/>
<rect x="152" y="144" width="8" height="8" fill="#28242e"/>
<rect x="160" y="144" width="16" height="8" fill="#fcfaf6"/>
<rect x="176" y="144" width="8" height="8" fill="#28242e"/>
<rect x="184" y="144" width="8" height="8" fill="#141416"/>
<rect x="192" y="144" width="32" height="8" fill="#fcfaf6"/>
<rect x="224" y="144" width="8" height="8" fill="#141416"/>
<rect x="16" y="152" width="8" height="8" fill="#141416"/>
<rect x="24" y="152" width="8" height="8" fill="#c7d9ee"/>
<rect x="32" y="152" width="32" height="8" fill="#fcfaf6"/>
<rect x="64" y="152" width="8" height="8" fill="#141416"/>
<rect x="72" y="152" width="32" height="8" fill="#28242e"/>
<rect x="104" y="152" width="8" height="8" fill="#141416"/>
<rect x="112" y="152" width="32" height="8" fill="#fcfaf6"/>
<rect x="144" y="152" width="8" height="8" fill="#141416"/>
<rect x="152" y="152" width="32" height="8" fill="#28242e"/>
<rect x="184" y="152" width="8" height="8" fill="#141416"/>
<rect x="192" y="152" width="32" height="8" fill="#fcfaf6"/>
<rect x="224" y="152" width="8" height="8" fill="#141416"/>
<rect x="16" y="160" width="8" height="8" fill="#141416"/>
<rect x="24" y="160" width="8" height="8" fill="#c7d9ee"/>
<rect x="32" y="160" width="40" height="8" fill="#fcfaf6"/>
<rect x="72" y="160" width="32" height="8" fill="#141416"/>
<rect x="104" y="160" width="48" height="8" fill="#fcfaf6"/>
<rect x="152" y="160" width="32" height="8" fill="#141416"/>
<rect x="184" y="160" width="40" height="8" fill="#fcfaf6"/>
<rect x="224" y="160" width="8" height="8" fill="#141416"/>
<rect x="16" y="168" width="8" height="8" fill="#141416"/>
<rect x="24" y="168" width="8" height="8" fill="#c7d9ee"/>
<rect x="32" y="168" width="192" height="8" fill="#fcfaf6"/>
<rect x="224" y="168" width="8" height="8" fill="#141416"/>
<rect x="16" y="176" width="8" height="8" fill="#141416"/>
<rect x="24" y="176" width="8" height="8" fill="#c7d9ee"/>
<rect x="32" y="176" width="40" height="8" fill="#fcfaf6"/>
<rect x="72" y="176" width="16" height="8" fill="#ff8e7e"/>
<rect x="88" y="176" width="80" height="8" fill="#fcfaf6"/>
<rect x="168" y="176" width="16" height="8" fill="#ff8e7e"/>
<rect x="184" y="176" width="40" height="8" fill="#fcfaf6"/>
<rect x="224" y="176" width="8" height="8" fill="#141416"/>
<rect x="16" y="184" width="8" height="8" fill="#141416"/>
<rect x="24" y="184" width="8" height="8" fill="#c7d9ee"/>
<rect x="32" y="184" width="64" height="8" fill="#fcfaf6"/>
<rect x="96" y="184" width="8" height="8" fill="#141416"/>
<rect x="104" y="184" width="32" height="8" fill="#fcfaf6"/>
<rect x="136" y="184" width="8" height="8" fill="#141416"/>
<rect x="144" y="184" width="80" height="8" fill="#fcfaf6"/>
<rect x="224" y="184" width="8" height="8" fill="#141416"/>
<rect x="16" y="192" width="8" height="8" fill="#141416"/>
<rect x="24" y="192" width="8" height="8" fill="#c7d9ee"/>
<rect x="32" y="192" width="64" height="8" fill="#fcfaf6"/>
<rect x="96" y="192" width="48" height="8" fill="#141416"/>
<rect x="144" y="192" width="72" height="8" fill="#fcfaf6"/>
<rect x="216" y="192" width="8" height="8" fill="#141416"/>
<rect x="16" y="200" width="8" height="8" fill="#141416"/>
<rect x="24" y="200" width="8" height="8" fill="#c7d9ee"/>
<rect x="32" y="200" width="184" height="8" fill="#fcfaf6"/>
<rect x="216" y="200" width="8" height="8" fill="#141416"/>
<rect x="16" y="208" width="8" height="8" fill="#141416"/>
<rect x="24" y="208" width="8" height="8" fill="#c7d9ee"/>
<rect x="32" y="208" width="184" height="8" fill="#fcfaf6"/>
<rect x="216" y="208" width="8" height="8" fill="#141416"/>
<rect x="16" y="216" width="8" height="8" fill="#141416"/>
<rect x="24" y="216" width="192" height="8" fill="#fcfaf6"/>
<rect x="216" y="216" width="8" height="8" fill="#141416"/>
<rect x="16" y="224" width="8" height="8" fill="#141416"/>
<rect x="24" y="224" width="192" height="8" fill="#fcfaf6"/>
<rect x="216" y="224" width="8" height="8" fill="#141416"/>
<rect x="16" y="232" width="8" height="8" fill="#141416"/>
<rect x="24" y="232" width="192" height="8" fill="#fcfaf6"/>
<rect x="216" y="232" width="8" height="8" fill="#141416"/>
<rect x="16" y="240" width="8" height="8" fill="#141416"/>
<rect x="24" y="240" width="192" height="8" fill="#fcfaf6"/>
<rect x="216" y="240" width="8" height="8" fill="#141416"/>
<rect x="16" y="248" width="8" height="8" fill="#141416"/>
<rect x="24" y="248" width="40" height="8" fill="#fcfaf6"/>
<rect x="64" y="248" width="8" height="8" fill="#141416"/>
<rect x="72" y="248" width="40" height="8" fill="#fcfaf6"/>
<rect x="112" y="248" width="8" height="8" fill="#141416"/>
<rect x="120" y="248" width="40" height="8" fill="#fcfaf6"/>
<rect x="160" y="248" width="8" height="8" fill="#141416"/>
<rect x="168" y="248" width="48" height="8" fill="#fcfaf6"/>
<rect x="216" y="248" width="8" height="8" fill="#141416"/>
<rect x="16" y="256" width="16" height="8" fill="#141416"/>
<rect x="32" y="256" width="24" height="8" fill="#fcfaf6"/>
<rect x="56" y="256" width="8" height="8" fill="#141416"/>
<rect x="72" y="256" width="8" height="8" fill="#141416"/>
<rect x="80" y="256" width="24" height="8" fill="#fcfaf6"/>
<rect x="104" y="256" width="8" height="8" fill="#141416"/>
<rect x="120" y="256" width="8" height="8" fill="#141416"/>
<rect x="128" y="256" width="24" height="8" fill="#fcfaf6"/>
<rect x="152" y="256" width="8" height="8" fill="#141416"/>
<rect x="168" y="256" width="8" height="8" fill="#141416"/>
<rect x="176" y="256" width="32" height="8" fill="#fcfaf6"/>
<rect x="208" y="256" width="16" height="8" fill="#141416"/>
<rect x="32" y="264" width="24" height="8" fill="#141416"/>
<rect x="80" y="264" width="24" height="8" fill="#141416"/>
<rect x="128" y="264" width="24" height="8" fill="#141416"/>
<rect x="176" y="264" width="32" height="8" fill="#141416"/>
</svg>