<svg xmlns="http://www.w3.org/2000/svg" viewBox="0 0 256 176" shape-rendering="crispEdges">
<rect x="48" y="0" width="48" height="8" fill="#141416"/>
<rect x="32" y="8" width="16" height="8" fill="#141416"/>
<rect x="48" y="8" width="48" height="8" fill="#fcfaf6"/>
<rect x="96" y="8" width="16" height="8" fill="#141416"/>
<rect x="24" y="16" width="8" height="8" fill="#141416"/>
<rect x="32" y="16" width="80" height="8" fill="#fcfaf6"/>
<rect x="112" y="16" width="8" height="8" fill="#141416"/>
<rect x="16" y="24" width="8" height="8" fill="#141416"/>
<rect x="24" y="24" width="96" height="8" fill="#fcfaf6"/>
<rect x="120" y="24" width="8" height="8" fill="#141416"/>
<rect x="8" y="32" width="8" height="8" fill="#141416"/>
<rect x="16" y="32" width="112" height="8" fill="#fcfaf6"/>
<rect x="128" y="32" width="8" height="8" fill="#141416"/>
<rect x="8" y="40" width="8" height="8" fill="#141416"/>
<rect x="16" y="40" width="8" height="8" fill="#c7d9ee"/>
<rect x="24" y="40" width="104" height="8" fill="#fcfaf6"/>
<rect x="128" y="40" width="8" height="8" fill="#141416"/>
<rect x="0" y="48" width="8" height="8" fill="#141416"/>
<rect x="8" y="48" width="8" height="8" fill="#c7d9ee"/>
<rect x="16" y="48" width="120" height="8" fill="#fcfaf6"/>
<rect x="136" y="48" width="8" height="8" fill="#141416"/>
<rect x="0" y="56" width="8" height="8" fill="#141416"/>
<rect x="8" y="56" width="8" height="8" fill="#c7d9ee"/>
<rect x="16" y="56" width="120" height="8" fill="#fcfaf6"/>
<rect x="136" y="56" width="8" height="8" fill="#141416"/>
<rect x="0" y="64" width="8" height="8" fill="#141416"/>
<rect x="8" y="64" width="8" height="8" fill="#c7d9ee"/>
<rect x="16" y="64" width="120" height="8" fill="#fcfaf6"/>
<rect x="136" y="64" width="8" height="8" fill="#141416"/>
<rect x="0" y="72" width="8" height="8" fill="#141416"/>
<rect x="8" y="72" width="8" height="8" fill="#c7d9ee"/>
<rect x="16" y="72" width="24" height="8" fill="#fcfaf6"/>
<rect x="40" y="72" width="16" height="8" fill="#141416"/>
<rect x="56" y="72" width="32" height="8" fill="#fcfaf6"/>
<rect x="88" y="72" width="16" height="8" fill="#141416"/>
<rect x="104" y="72" width="32" height="8" fill="#fcfaf6"/>
<rect x="136" y="72" width="8" height="8" fill="#141416"/>
<rect x="0" y="80" width="8" height="8" fill="#141416"/>
<rect x="8" y="80" width="8" height="8" fill="#c7d9ee"/>
<rect x="16" y="80" width="24" height="8" fill="#fcfaf6"/>
<rect x="40" y="80" width="16" height="8" fill="#141416"/>
<rect x="56" y="80" width="32" height="8" fill="#fcfaf6"/>
<rect x="88" y="80" width="16" height="8" fill="#141416"/>
<rect x="104" y="80" width="32" height="8" fill="#fcfaf6"/>
<rect x="136" y="80" width="8" height="8" fill="#141416"/>
<rect x="0" y="88" width="8" height="8" fill="#141416"/>
<rect x="8" y="88" width="8" height="8" fill="#c7d9ee"/>
<rect x="16" y="88" width="120" height="8" fill="#fcfaf6"/>
<rect x="136" y="88" width="8" height="8" fill="#141416"/>
<rect x="224" y="88" width="24" height="8" fill="#ff8e7e"/>
<rect x="0" y="96" width="8" height="8" fill="#141416"/>
<rect x="8" y="96" width="8" height="8" fill="#c7d9ee"/>
<rect x="16" y="96" width="120" height="8" fill="#fcfaf6"/>
<rect x="136" y="96" width="8" height="8" fill="#141416"/>
<rect x="224" y="96" width="24" height="8" fill="#ff8e7e"/>
<rect x="0" y="104" width="8" height="8" fill="#141416"/>
<rect x="8" y="104" width="8" height="8" fill="#c7d9ee"/>
<rect x="16" y="104" width="48" height="8" fill="#fcfaf6"/>
<rect x="64" y="104" width="16" height="8" fill="#141416"/>
<rect x="80" y="104" width="56" height="8" fill="#fcfaf6"/>
<rect x="136" y="104" width="8" height="8" fill="#141416"/>
<rect x="224" y="104" width="24" height="8" fill="#ff8e7e"/>
<rect x="0" y="112" width="8" height="8" fill="#141416"/>
<rect x="8" y="112" width="8" height="8" fill="#c7d9ee"/>
<rect x="16" y="112" width="120" height="8" fill="#fcfaf6"/>
<rect x="136" y="112" width="8" height="8" fill="#141416"/>
<rect x="192" y="112" width="24" height="8" fill="#58a8e8"/>
<rect x="224" y="112" width="24" height="8" fill="#ff8e7e"/>
<rect x="0" y="120" width="8" height="8" fill="#141416"/>
<rect x="8" y="120" width="8" height="8" fill="#c7d9ee"/>
<rect x="16" y="120" width="120" height="8" fill="#fcfaf6"/>
<rect x="136" y="120" width="8" height="8" fill="#141416"/>
<rect x="192" y="120" width="24" height="8" fill="#58a8e8"/>
<rect x="224" y="120" width="24" height="8" fill="#ff8e7e"/>
<rect x="0" y="128" width="8" height="8" fill="#141416"/>
<rect x="8" y="128" width="128" height="8" fill="#fcfaf6"/>
<rect x="136" y="128" width="8" height="8" fill="#141416"/>
<rect x="192" y="128" width="24" height="8" fill="#58a8e8"/>
<rect x="224" y="128" width="24" height="8" fill="#ff8e7e"/>
<rect x="0" y="136" width="8" height="8" fill="#141416"/>
<rect x="8" y="136" width="128" height="8" fill="#fcfaf6"/>
<rect x="136" y="136" width="8" height="8" fill="#141416"/>
<rect x="160" y="136" width="24" height="8" fill="#ffd66d"/>
<rect x="192" y="136" width="24" height="8" fill="#58a8e8"/>
<rect x="224" y="136" width="24" height="8" fill="#ff8e7e"/>
<rect x="0" y="144" width="8" height="8" fill="#141416"/>
<rect x="8" y="144" width="128" height="8" fill="#fcfaf6"/>
<rect x="136" y="144" width="8" height="8" fill="#141416"/>
<rect x="160" y="144" width="24" height="8" fill="#ffd66d"/>
<rect x="192" y="144" width="24" height="8" fill="#58a8e8"/>
<rect x="224" y="144" width="24" height="8" fill="#ff8e7e"/>
<rect x="0" y="152" width="8" height="8" fill="#141416"/>
<rect x="8" y="152" width="32" height="8" fill="#fcfaf6"/>
<rect x="40" y="152" width="8" height="8" fill="#141416"/>
<rect x="48" y="152" width="24" height="8" fill="#fcfaf6"/>
<rect x="72" y="152" width="8" height="8" fill="#141416"/>
<rect x="80" y="152" width="24" height="8" fill="#fcfaf6"/>
<rect x="104" y="152" width="8" height="8" fill="#141416"/>
<rect x="112" y="152" width="24" height="8" fill="#fcfaf6"/>
<rect x="136" y="152" width="8" height="8" fill="#141416"/>
<rect x="160" y="152" width="24" height="8" fill="#ffd66d"/>
<rect x="192" y="152" width="24" height="8" fill="#58a8e8"/>
<rect x="224" y="152" width="24" height="8" fill="#ff8e7e"/>
<rect x="0" y="160" width="8" height="8" fill="#141416"/>
<rect x="8" y="160" width="24" height="8" fill="#fcfaf6"/>
<rect x="32" y="160" width="8" height="8" fill="#141416"/>
<rect x="48" y="160" width="8" height="8" fill="#141416"/>
<rect x="56" y="160" width="8" height="8" fill="#fcfaf6"/>
<rect x="64" y="160" width="8" height="8" fill="#141416"/>
<rect x="80" y="160" width="8" height="8" fill="#141416"/>
<rect x="88" y="160" width="8" height="8" fill="#fcfaf6"/>
<rect x="96" y="160" width="8" height="8" fill="#141416"/>
<rect x="112" y="160" width="8" height="8" fill="#141416"/>
<rect x="120" y="160" width="16" height="8" fill="#fcfaf6"/>
<rect x="136" y="160" width="8" height="8" fill="#141416"/>
<rect x="160" y="160" width="24" height="8" fill="#ffd66d"/>
<rect x="192" y="160" width="24" height="8" fill="#58a8e8"/>
<rect x="224" y="160" width="24" height="8" fill="#ff8e7e"/>
<rect x="8" y="168" width="24" height="8" fill="#141416"/>
<rect x="56" y="168" width="8" height="8" fill="#141416"/>
<rect x="88" y="168" width="8" height="8" fill="#141416"/>
<rect x="120" y="168" width="16" height="8" fill="#141416"/>
<rect x="152" y="168" width="104" height="8" fill="#141416"/>
</svg>