<svg xmlns="http://www.w3.org/2000/svg" viewBox="0 0 96 96" role="img" aria-labelledby="title desc">
  <title id="title">Ghostie mark</title>
  <desc id="desc">A friendly ghost shaped like a soft message bubble.</desc>
  <defs>
    <filter id="shadow" x="-20%" y="-10%" width="140%" height="130%">
      <feDropShadow dx="0" dy="9" stdDeviation="8" flood-color="#211A2A" flood-opacity=".16"/>
    </filter>
  </defs>
  <circle cx="48" cy="48" r="44" fill="#E6F8F4"/>
  <path d="M18 67c-2.8 1.8-6.1-.9-5.1-4.1l4.2-13.4C20.2 30.6 31.1 18 48 18c17.2 0 30 12.5 30 30.3v22.1c0 5.4-6.3 8.4-10.5 5l-5.7-4.6-5.9 7.2a4.3 4.3 0 0 1-6.8 0l-5.9-7.2-5.7 4.6c-4.2 3.4-10.5.4-10.5-5v-3.5L18 67Z" fill="#FFF9F2" stroke="#211A2A" stroke-width="3.4" stroke-linejoin="round" filter="url(#shadow)"/>
  <circle cx="38.4" cy="47" r="4.4" fill="#211A2A"/>
  <circle cx="58.2" cy="47" r="4.4" fill="#211A2A"/>
  <path d="M42.6 59.2c3.4 3 7.9 3 11.1 0" fill="none" stroke="#211A2A" stroke-width="3.2" stroke-linecap="round"/>
  <circle cx="31.7" cy="56.5" r="3.5" fill="#FF8E7E" opacity=".82"/>
  <circle cx="64.8" cy="56.5" r="3.5" fill="#FF8E7E" opacity=".82"/>
  <path d="M69 30.4c2.6-4.1 6.6-5.7 11.8-4.5-2.9 1.8-4.1 4.1-3.8 6.9-2.4-1.4-5.1-2.2-8-2.4Z" fill="#FFD66D" stroke="#211A2A" stroke-width="2.1" stroke-linejoin="round"/>
</svg>
