<svg xmlns="http://www.w3.org/2000/svg" viewBox="0 0 96 96" role="img" aria-labelledby="title desc">
  <title id="title">Ghostie mascot, boo</title>
  <desc id="desc">A friendly ghost mascot saying boo.</desc>
  <path d="M48 13c-16.2 0-27 12.2-27 29.9v8.4c-7.2 1.2-11.7 6.6-11.4 12.9.2 3.2 3.3 4.9 6.1 3.2l5.3-3.2v7.2c0 5 5.7 7.8 9.5 4.6l4.8-4.1 5.3 5.9a4.1 4.1 0 0 0 6.1 0l5.3-5.9 5.2 4.1c3.8 3.1 9.5.4 9.5-4.6v-7.2l5.3 3.2c2.8 1.7 5.9 0 6.1-3.2.3-6.3-4.2-11.7-11.4-12.9v-8.4C75 25.2 64.2 13 48 13Z" fill="#FFF9F2" stroke="#211A2A" stroke-width="3" stroke-linejoin="round"/>
  <circle cx="38.5" cy="44.2" r="4.3" fill="#211A2A"/>
  <circle cx="57.7" cy="44.2" r="4.3" fill="#211A2A"/>
  <ellipse cx="48.2" cy="58.6" rx="5.2" ry="6.2" fill="#211A2A"/>
  <circle cx="31.8" cy="54.4" r="3.5" fill="#FF8E7E" opacity=".82"/>
  <circle cx="64.3" cy="54.4" r="3.5" fill="#FF8E7E" opacity=".82"/>
  <path d="M14 27.8h22.5c3 0 5.4-2.4 5.4-5.4v-1c0-3-2.4-5.4-5.4-5.4H18.8C15.6 16 13 18.6 13 21.8v5l-5.2 5.4 6.2-1.8Z" fill="#FFD66D" stroke="#211A2A" stroke-width="2.2" stroke-linejoin="round"/>
  <text x="17.3" y="26.2" fill="#211A2A" font-family="Inter, Arial, sans-serif" font-size="10.4" font-weight="900">boo</text>
</svg>
